<svg width="127" height="72" fill="#fff" xmlns="http://www.w3.org/2000/svg"><path d="M58.9 57.825c.183.017.392.033.625.05h.875c1.95 0 3.392-.492 4.325-1.475.95-.983 1.425-2.342 1.425-4.075 0-1.817-.45-3.192-1.35-4.125-.9-.933-2.325-1.4-4.275-1.4-.267 0-.542.008-.825.025-.283 0-.55.017-.8.05v10.95zm11.275-5.5c0 1.5-.233 2.808-.7 3.925-.467 1.117-1.133 2.042-2 2.775-.85.733-1.892 1.283-3.125 1.65s-2.617.55-4.15.55c-.7 0-1.517-.033-2.45-.1a18.8 18.8 0 0 1-2.75-.35V43.9c.9-.167 1.833-.275 2.8-.325a38.13 38.13 0 0 1 2.525-.1c1.483 0 2.825.167 4.025.5 1.217.333 2.258.858 3.125 1.575s1.533 1.633 2 2.75c.467 1.117.7 2.458.7 4.025zM84.398 61c-.183-.6-.392-1.217-.625-1.85l-.65-1.9h-6.75a86.64 86.64 0 0 1-.675 1.9c-.217.633-.417 1.25-.6 1.85h-4.05c.65-1.867 1.266-3.592 1.85-5.175a223.57 223.57 0 0 1 1.7-4.475 229.86 229.86 0 0 1 1.65-3.975c.55-1.267 1.117-2.5 1.7-3.7h3.725c.567 1.2 1.125 2.433 1.675 3.7.55 1.25 1.1 2.575 1.65 3.975.566 1.4 1.141 2.892 1.725 4.475.583 1.583 1.2 3.308 1.85 5.175h-4.175zm-4.675-13.4c-.084.25-.209.592-.375 1.025l-.575 1.5c-.217.567-.459 1.192-.725 1.875-.25.683-.508 1.4-.775 2.15h4.925a251.91 251.91 0 0 0-.775-2.15 50.793 50.793 0 0 0-.725-1.875l-.575-1.5a88.07 88.07 0 0 0-.4-1.025zm22.667 10.05V61H90.815V43.675h3.9V57.65h7.675zm6.372-6.85a94.813 94.813 0 0 0 2-3.55 54.371 54.371 0 0 0 1.75-3.575h4.3a110.92 110.92 0 0 1-2.95 5.425 141.18 141.18 0 0 1-3.225 5.275V61h-3.9v-6.575a151.146 151.146 0 0 1-3.25-5.3 120.19 120.19 0 0 1-2.95-5.45h4.525a63.36 63.36 0 0 0 1.725 3.575 75.853 75.853 0 0 0 1.975 3.55zM11 2l.985-1.74-2.46 3.09L11 2zm22.615 24.7l1.524-1.296-.024-.027-.025-.028-1.475 1.351zm5.03 32.3h-2v2h2v-2zM74 2l1.475 1.35-2.46-3.09L74 2zM51.385 26.7l-1.475-1.35-.025.026-.024.028 1.524 1.296zM46.355 59v2h2v-2h-2zM42.5 19.812l-.984 1.741.984.557.984-.557-.984-1.74zM9.525 3.352l22.615 24.7 2.95-2.702L12.476.65l-2.95 2.702zm22.567 24.645c1.166 1.37 3.797 5.513 4.384 10.345l3.97-.482c-.704-5.808-3.78-10.659-5.307-12.455l-3.047 2.591zm4.384 10.345c.305 2.513.355 6.368.32 10.316-.034 3.843-.15 7.867-.15 10.343h4c0-2.511.114-6.277.15-10.308.034-3.924-.008-8.026-.35-10.833l-3.97.482zM38.646 61h6.093v-4h-6.094v4zM72.524.65l-22.616 24.7 2.95 2.7 22.616-24.7-2.95-2.7zM49.86 25.404c-1.527 1.795-4.602 6.646-5.308 12.454l3.97.482c.588-4.832 3.22-8.974 4.385-10.346l-3.047-2.59zm-5.308 12.454c-.34 2.807-.383 6.909-.349 10.833.036 4.03.15 7.797.15 10.308h4c0-2.476-.116-6.5-.15-10.343-.035-3.948.015-7.803.32-10.316l-3.97-.482zM46.355 57H40.26v4h6.094v-4zM10.015 3.74l31.5 17.813 1.97-3.481L11.984.259l-1.97 3.482zm63-3.48l-31.5 17.812 1.97 3.481 31.5-17.812-1.97-3.482z"/><circle cx="42.5" cy="5.5" r="5.5"/><path d="M7.2 43.475c2.583 0 4.567.458 5.95 1.375 1.383.9 2.075 2.383 2.075 4.45 0 2.083-.7 3.592-2.1 4.525-1.4.917-3.4 1.375-6 1.375H5.9V61H2V43.925c.85-.167 1.75-.283 2.7-.35.95-.067 1.783-.1 2.5-.1zm.25 3.325c-.283 0-.567.008-.85.025-.267.017-.5.033-.7.05v5h1.225c1.35 0 2.367-.183 3.05-.55.683-.367 1.025-1.05 1.025-2.05 0-.483-.092-.883-.275-1.2a1.807 1.807 0 0 0-.75-.75c-.317-.2-.708-.333-1.175-.4a8.85 8.85 0 0 0-1.55-.125zM18.089 61V43.675h11.7v3.275h-7.8v3.4h6.925v3.2h-6.925v4.175h8.375V61H18.089z"/></svg>